<mxfile host="65bd71144e">
    <diagram id="gfkk2n_FwnV7IJwrMY0z" name="ページ1">
        <mxGraphModel dx="1302" dy="761" grid="1" gridSize="10" guides="1" tooltips="1" connect="1" arrows="1" fold="1" page="1" pageScale="1" pageWidth="1654" pageHeight="1169" math="0" shadow="0">
            <root>
                <mxCell id="0"/>
                <mxCell id="1" parent="0"/>
                <mxCell id="2" value="Web ACL #1" style="shape=mxgraph.ibm.box;prType=subnet;fontStyle=0;verticalAlign=middle;align=left;spacingLeft=32;spacingTop=4;fillColor=#E6F0E2;rounded=0;whiteSpace=wrap;html=1;strokeColor=#00882B;strokeWidth=1;dashed=0;container=1;spacing=-4;collapsible=0;expand=0;recursiveResize=0;fontColor=#000000;" parent="1" vertex="1">
                    <mxGeometry x="220" y="285" width="190" height="110" as="geometry"/>
                </mxCell>
                <mxCell id="3" value="Web ACL #2" style="shape=mxgraph.ibm.box;prType=subnet;fontStyle=0;verticalAlign=middle;align=left;spacingLeft=32;spacingTop=4;fillColor=#E6F0E2;rounded=0;whiteSpace=wrap;html=1;strokeColor=#00882B;strokeWidth=1;dashed=0;container=1;spacing=-4;collapsible=0;expand=0;recursiveResize=0;fontColor=#000000;" parent="1" vertex="1">
                    <mxGeometry x="420" y="285" width="190" height="110" as="geometry"/>
                </mxCell>
                <mxCell id="48" style="edgeStyle=none;html=1;dashed=1;strokeWidth=2;" parent="1" source="4" target="28" edge="1">
                    <mxGeometry relative="1" as="geometry"/>
                </mxCell>
                <mxCell id="4" value="Web ACL #n" style="shape=mxgraph.ibm.box;prType=subnet;fontStyle=0;verticalAlign=middle;align=left;spacingLeft=32;spacingTop=4;fillColor=#E6F0E2;rounded=0;whiteSpace=wrap;html=1;strokeColor=#00882B;strokeWidth=1;dashed=0;container=1;spacing=-4;collapsible=0;expand=0;recursiveResize=0;fontColor=#000000;" parent="1" vertex="1">
                    <mxGeometry x="670" y="285" width="190" height="110" as="geometry"/>
                </mxCell>
                <mxCell id="6" value="" style="swimlane;startSize=0;fontColor=#000000;" parent="1" vertex="1">
                    <mxGeometry x="100" y="240" width="780" height="205" as="geometry"/>
                </mxCell>
                <mxCell id="14" value="AWS WAF" style="sketch=0;outlineConnect=0;fontColor=#232F3E;gradientColor=none;strokeColor=#ffffff;fillColor=#232F3E;dashed=0;verticalLabelPosition=middle;verticalAlign=bottom;align=center;html=1;whiteSpace=wrap;fontSize=10;fontStyle=1;spacing=3;shape=mxgraph.aws4.productIcon;prIcon=mxgraph.aws4.waf;" parent="6" vertex="1">
                    <mxGeometry x="10" y="47.5" width="90" height="105" as="geometry"/>
                </mxCell>
                <mxCell id="12" style="edgeStyle=none;html=1;fontColor=#000000;" parent="1" source="8" target="3" edge="1">
                    <mxGeometry relative="1" as="geometry"/>
                </mxCell>
                <mxCell id="8" value="Application Load Balancer" style="sketch=0;outlineConnect=0;fontColor=#232F3E;gradientColor=none;strokeColor=#ffffff;fillColor=#232F3E;dashed=0;verticalLabelPosition=middle;verticalAlign=bottom;align=center;html=1;whiteSpace=wrap;fontSize=10;fontStyle=1;spacing=3;shape=mxgraph.aws4.productIcon;prIcon=mxgraph.aws4.application_load_balancer;" parent="1" vertex="1">
                    <mxGeometry x="485" y="50" width="80" height="110" as="geometry"/>
                </mxCell>
                <mxCell id="11" style="edgeStyle=none;html=1;fontColor=#000000;" parent="1" source="9" target="2" edge="1">
                    <mxGeometry relative="1" as="geometry"/>
                </mxCell>
                <mxCell id="9" value="Amazon Cloudfront" style="sketch=0;outlineConnect=0;fontColor=#232F3E;gradientColor=none;strokeColor=#ffffff;fillColor=#232F3E;dashed=0;verticalLabelPosition=middle;verticalAlign=bottom;align=center;html=1;whiteSpace=wrap;fontSize=10;fontStyle=1;spacing=3;shape=mxgraph.aws4.productIcon;prIcon=mxgraph.aws4.cloudfront;" parent="1" vertex="1">
                    <mxGeometry x="120" y="50" width="80" height="110" as="geometry"/>
                </mxCell>
                <mxCell id="13" style="edgeStyle=none;html=1;fontColor=#000000;" parent="1" source="10" target="4" edge="1">
                    <mxGeometry relative="1" as="geometry"/>
                </mxCell>
                <mxCell id="10" value="Amazon API Gateway" style="sketch=0;outlineConnect=0;fontColor=#232F3E;gradientColor=none;strokeColor=#ffffff;fillColor=#232F3E;dashed=0;verticalLabelPosition=middle;verticalAlign=bottom;align=center;html=1;whiteSpace=wrap;fontSize=10;fontStyle=1;spacing=3;shape=mxgraph.aws4.productIcon;prIcon=mxgraph.aws4.api_gateway;" parent="1" vertex="1">
                    <mxGeometry x="770" y="50" width="80" height="110" as="geometry"/>
                </mxCell>
                <mxCell id="28" value="WebACL #1" style="shape=mxgraph.ibm.box;prType=subnet;fontStyle=0;verticalAlign=top;align=center;spacingLeft=32;spacingTop=4;fillColor=#E6F0E2;rounded=0;whiteSpace=wrap;html=1;strokeColor=#00882B;strokeWidth=1;dashed=0;container=1;spacing=-4;collapsible=0;expand=0;recursiveResize=0;fontColor=#000000;labelPosition=center;verticalLabelPosition=middle;" parent="1" vertex="1">
                    <mxGeometry x="420" y="520" width="460" height="600" as="geometry"/>
                </mxCell>
                <mxCell id="29" value="" style="rounded=1;arcSize=10;strokeColor=none;fillColor=#DBDBDB;gradientColor=none;" parent="28" vertex="1">
                    <mxGeometry x="40" y="460" width="380" height="111.5" as="geometry"/>
                </mxCell>
                <mxCell id="30" value="" style="rounded=1;arcSize=10;strokeColor=none;fillColor=#DBDBDB;gradientColor=none;" parent="28" vertex="1">
                    <mxGeometry x="40" y="293.25" width="380" height="111.5" as="geometry"/>
                </mxCell>
                <mxCell id="31" value="" style="rounded=1;arcSize=10;strokeColor=none;fillColor=#DBDBDB;gradientColor=none;" parent="28" vertex="1">
                    <mxGeometry x="40" y="170" width="380" height="111.5" as="geometry"/>
                </mxCell>
                <mxCell id="32" value="" style="rounded=1;arcSize=10;strokeColor=none;fillColor=#DBDBDB;gradientColor=none;" parent="28" vertex="1">
                    <mxGeometry x="40" y="48.5" width="380" height="111.5" as="geometry"/>
                </mxCell>
                <mxCell id="33" value="Rule #1" style="sketch=0;outlineConnect=0;fontColor=#232F3E;gradientColor=none;fillColor=#BF0816;strokeColor=none;dashed=0;verticalLabelPosition=middle;verticalAlign=middle;align=right;html=1;fontSize=12;fontStyle=0;aspect=fixed;pointerEvents=1;shape=mxgraph.aws4.waf_rule;labelPosition=left;" parent="28" vertex="1">
                    <mxGeometry x="90" y="60" width="78" height="78" as="geometry"/>
                </mxCell>
                <mxCell id="34" value="Rule #2" style="sketch=0;outlineConnect=0;fontColor=#232F3E;gradientColor=none;fillColor=#BF0816;strokeColor=none;dashed=0;verticalLabelPosition=middle;verticalAlign=middle;align=right;html=1;fontSize=12;fontStyle=0;aspect=fixed;pointerEvents=1;shape=mxgraph.aws4.waf_rule;labelPosition=left;" parent="28" vertex="1">
                    <mxGeometry x="90" y="186.75" width="78" height="78" as="geometry"/>
                </mxCell>
                <mxCell id="35" value="Rule #3" style="sketch=0;outlineConnect=0;fontColor=#232F3E;gradientColor=none;fillColor=#BF0816;strokeColor=none;dashed=0;verticalLabelPosition=middle;verticalAlign=middle;align=right;html=1;fontSize=12;fontStyle=0;aspect=fixed;pointerEvents=1;shape=mxgraph.aws4.waf_rule;labelPosition=left;" parent="28" vertex="1">
                    <mxGeometry x="90" y="310" width="78" height="78" as="geometry"/>
                </mxCell>
                <mxCell id="36" value="Rule #n" style="sketch=0;outlineConnect=0;fontColor=#232F3E;gradientColor=none;fillColor=#BF0816;strokeColor=none;dashed=0;verticalLabelPosition=middle;verticalAlign=middle;align=right;html=1;fontSize=12;fontStyle=0;aspect=fixed;pointerEvents=1;shape=mxgraph.aws4.waf_rule;labelPosition=left;" parent="28" vertex="1">
                    <mxGeometry x="90" y="476.75" width="78" height="78" as="geometry"/>
                </mxCell>
                <mxCell id="39" value="statement" style="shape=process;whiteSpace=wrap;html=1;backgroundOutline=1;" parent="28" vertex="1">
                    <mxGeometry x="180" y="100" width="120" height="30" as="geometry"/>
                </mxCell>
                <mxCell id="40" value="action" style="shape=step;perimeter=stepPerimeter;whiteSpace=wrap;html=1;fixedSize=1;size=10;" parent="28" vertex="1">
                    <mxGeometry x="310" y="100" width="80" height="30" as="geometry"/>
                </mxCell>
                <mxCell id="46" value="" style="group" parent="1" vertex="1" connectable="0">
                    <mxGeometry x="1020" y="730" width="370" height="140" as="geometry"/>
                </mxCell>
                <mxCell id="41" value="&amp;nbsp; &amp;nbsp; statement" style="shape=process;whiteSpace=wrap;html=1;backgroundOutline=1;align=left;" parent="46" vertex="1">
                    <mxGeometry width="370" height="140" as="geometry"/>
                </mxCell>
                <mxCell id="45" value="" style="group" parent="46" vertex="1" connectable="0">
                    <mxGeometry x="120" y="25" width="150" height="90" as="geometry"/>
                </mxCell>
                <mxCell id="43" value="対象" style="rounded=1;whiteSpace=wrap;html=1;" parent="45" vertex="1">
                    <mxGeometry x="60" width="90" height="40" as="geometry"/>
                </mxCell>
                <mxCell id="44" value="内容" style="rounded=1;whiteSpace=wrap;html=1;" parent="45" vertex="1">
                    <mxGeometry x="60" y="50" width="90" height="40" as="geometry"/>
                </mxCell>
                <mxCell id="42" value="判定" style="rhombus;whiteSpace=wrap;html=1;" parent="45" vertex="1">
                    <mxGeometry width="80" height="90" as="geometry"/>
                </mxCell>
                <mxCell id="49" style="edgeStyle=none;html=1;entryX=0;entryY=0.5;entryDx=0;entryDy=0;dashed=1;strokeWidth=2;" parent="1" source="39" target="41" edge="1">
                    <mxGeometry relative="1" as="geometry"/>
                </mxCell>
                <mxCell id="50" value="Amazon CloudWatch" style="sketch=0;outlineConnect=0;fontColor=#232F3E;gradientColor=none;strokeColor=#ffffff;fillColor=#232F3E;dashed=0;verticalLabelPosition=middle;verticalAlign=bottom;align=center;html=1;whiteSpace=wrap;fontSize=10;fontStyle=1;spacing=3;shape=mxgraph.aws4.productIcon;prIcon=mxgraph.aws4.cloudwatch;" parent="1" vertex="1">
                    <mxGeometry x="1040" y="280" width="80" height="110" as="geometry"/>
                </mxCell>
                <mxCell id="51" value="" style="shape=flexArrow;endArrow=classic;html=1;strokeWidth=2;" parent="1" edge="1">
                    <mxGeometry width="50" height="50" relative="1" as="geometry">
                        <mxPoint x="910" y="341.5" as="sourcePoint"/>
                        <mxPoint x="1020" y="341.5" as="targetPoint"/>
                    </mxGeometry>
                </mxCell>
            </root>
        </mxGraphModel>
    </diagram>
</mxfile>